%TF.GenerationSoftware,KiCad,Pcbnew,5.1.6-c6e7f7d~86~ubuntu18.04.1*%
%TF.CreationDate,2020-07-08T21:07:12-04:00*%
%TF.ProjectId,boo,626f6f2e-6b69-4636-9164-5f7063625858,rev?*%
%TF.SameCoordinates,Original*%
%TF.FileFunction,Copper,L1,Top*%
%TF.FilePolarity,Positive*%
%FSLAX46Y46*%
G04 Gerber Fmt 4.6, Leading zero omitted, Abs format (unit mm)*
G04 Created by KiCad (PCBNEW 5.1.6-c6e7f7d~86~ubuntu18.04.1) date 2020-07-08 21:07:12*
%MOMM*%
%LPD*%
G01*
G04 APERTURE LIST*
%TA.AperFunction,EtchedComponent*%
%ADD10C,0.100000*%
%TD*%
%TA.AperFunction,ComponentPad*%
%ADD11O,1.600000X1.600000*%
%TD*%
%TA.AperFunction,ComponentPad*%
%ADD12R,1.600000X1.600000*%
%TD*%
%TA.AperFunction,ComponentPad*%
%ADD13C,1.600000*%
%TD*%
%TA.AperFunction,ComponentPad*%
%ADD14R,1.700000X1.700000*%
%TD*%
%TA.AperFunction,ComponentPad*%
%ADD15O,1.700000X1.700000*%
%TD*%
%TA.AperFunction,ComponentPad*%
%ADD16O,1.700000X1.950000*%
%TD*%
%TA.AperFunction,SMDPad,CuDef*%
%ADD17R,1.000000X1.500000*%
%TD*%
%TA.AperFunction,ViaPad*%
%ADD18C,0.800000*%
%TD*%
%TA.AperFunction,Conductor*%
%ADD19C,0.250000*%
%TD*%
%TA.AperFunction,Conductor*%
%ADD20C,0.500000*%
%TD*%
G04 APERTURE END LIST*
D10*
%TO.C,JP1*%
G36*
X455060000Y388420000D02*
G01*
X455560000Y388420000D01*
X455560000Y388020000D01*
X455060000Y388020000D01*
X455060000Y388420000D01*
G37*
G36*
X455060000Y389220000D02*
G01*
X455560000Y389220000D01*
X455560000Y388820000D01*
X455060000Y388820000D01*
X455060000Y389220000D01*
G37*
%TD*%
D11*
%TO.P,U1,14*%
%TO.N,/up_a*%
X430530000Y420370000D03*
%TO.P,U1,7*%
%TO.N,/right_a*%
X422910000Y405130000D03*
%TO.P,U1,13*%
%TO.N,Net-(J1-Pad3)*%
X430530000Y417830000D03*
%TO.P,U1,6*%
%TO.N,Net-(J4-Pad3)*%
X422910000Y407670000D03*
%TO.P,U1,12*%
%TO.N,Net-(J1-Pad2)*%
X430530000Y415290000D03*
%TO.P,U1,5*%
%TO.N,Net-(J4-Pad2)*%
X422910000Y410210000D03*
%TO.P,U1,11*%
%TO.N,GND*%
X430530000Y412750000D03*
%TO.P,U1,4*%
%TO.N,vcc*%
X422910000Y412750000D03*
%TO.P,U1,10*%
%TO.N,Net-(J3-Pad2)*%
X430530000Y410210000D03*
%TO.P,U1,3*%
%TO.N,Net-(J2-Pad2)*%
X422910000Y415290000D03*
%TO.P,U1,9*%
%TO.N,Net-(J3-Pad3)*%
X430530000Y407670000D03*
%TO.P,U1,2*%
%TO.N,Net-(J2-Pad3)*%
X422910000Y417830000D03*
%TO.P,U1,8*%
%TO.N,/down_a*%
X430530000Y405130000D03*
D12*
%TO.P,U1,1*%
%TO.N,/left_a*%
X422910000Y420370000D03*
%TD*%
D11*
%TO.P,R8,2*%
%TO.N,GND*%
X406400000Y407670000D03*
D13*
%TO.P,R8,1*%
%TO.N,Net-(J4-Pad2)*%
X416560000Y407670000D03*
%TD*%
D11*
%TO.P,R7,2*%
%TO.N,Net-(J4-Pad3)*%
X406400000Y402590000D03*
D13*
%TO.P,R7,1*%
%TO.N,/right_a*%
X416560000Y402590000D03*
%TD*%
D11*
%TO.P,R6,2*%
%TO.N,GND*%
X445770000Y410210000D03*
D13*
%TO.P,R6,1*%
%TO.N,Net-(J3-Pad2)*%
X435610000Y410210000D03*
%TD*%
D11*
%TO.P,R5,2*%
%TO.N,Net-(J3-Pad3)*%
X445770000Y402590000D03*
D13*
%TO.P,R5,1*%
%TO.N,/down_a*%
X435610000Y402590000D03*
%TD*%
D11*
%TO.P,R4,2*%
%TO.N,GND*%
X407670000Y417830000D03*
D13*
%TO.P,R4,1*%
%TO.N,Net-(J2-Pad2)*%
X417830000Y417830000D03*
%TD*%
D11*
%TO.P,R3,2*%
%TO.N,Net-(J2-Pad3)*%
X407670000Y424180000D03*
D13*
%TO.P,R3,1*%
%TO.N,/left_a*%
X417830000Y424180000D03*
%TD*%
D11*
%TO.P,R2,2*%
%TO.N,GND*%
X445770000Y417830000D03*
D13*
%TO.P,R2,1*%
%TO.N,Net-(J1-Pad2)*%
X435610000Y417830000D03*
%TD*%
D11*
%TO.P,R1,2*%
%TO.N,Net-(J1-Pad3)*%
X445770000Y422910000D03*
D13*
%TO.P,R1,1*%
%TO.N,/up_a*%
X435610000Y422910000D03*
%TD*%
D14*
%TO.P,J1,1*%
%TO.N,GND*%
X403860000Y441960000D03*
D15*
%TO.P,J1,2*%
%TO.N,Net-(J1-Pad2)*%
X406400000Y441960000D03*
%TO.P,J1,3*%
%TO.N,Net-(J1-Pad3)*%
X408940000Y441960000D03*
%TO.P,J1,4*%
%TO.N,vcc*%
X411480000Y441960000D03*
%TD*%
%TO.P,J2,4*%
%TO.N,vcc*%
X398780000Y427990000D03*
%TO.P,J2,3*%
%TO.N,Net-(J2-Pad3)*%
X398780000Y425450000D03*
%TO.P,J2,2*%
%TO.N,Net-(J2-Pad2)*%
X398780000Y422910000D03*
D14*
%TO.P,J2,1*%
%TO.N,GND*%
X398780000Y420370000D03*
%TD*%
%TO.P,J3,1*%
%TO.N,GND*%
X429260000Y441960000D03*
D15*
%TO.P,J3,2*%
%TO.N,Net-(J3-Pad2)*%
X431800000Y441960000D03*
%TO.P,J3,3*%
%TO.N,Net-(J3-Pad3)*%
X434340000Y441960000D03*
%TO.P,J3,4*%
%TO.N,vcc*%
X436880000Y441960000D03*
%TD*%
%TO.P,J4,4*%
%TO.N,vcc*%
X398780000Y406400000D03*
%TO.P,J4,3*%
%TO.N,Net-(J4-Pad3)*%
X398780000Y403860000D03*
%TO.P,J4,2*%
%TO.N,Net-(J4-Pad2)*%
X398780000Y401320000D03*
D14*
%TO.P,J4,1*%
%TO.N,GND*%
X398780000Y398780000D03*
%TD*%
%TO.P,J5,1*%
%TO.N,/up_a*%
%TA.AperFunction,ComponentPad*%
G36*
G01*
X448730000Y443775000D02*
X448730000Y445225000D01*
G75*
G02*
X448980000Y445475000I250000J0D01*
G01*
X450180000Y445475000D01*
G75*
G02*
X450430000Y445225000I0J-250000D01*
G01*
X450430000Y443775000D01*
G75*
G02*
X450180000Y443525000I-250000J0D01*
G01*
X448980000Y443525000D01*
G75*
G02*
X448730000Y443775000I0J250000D01*
G01*
G37*
%TD.AperFunction*%
D16*
%TO.P,J5,2*%
%TO.N,/left_a*%
X452080000Y444500000D03*
%TO.P,J5,3*%
%TO.N,/down_a*%
X454580000Y444500000D03*
%TO.P,J5,4*%
%TO.N,/right_a*%
X457080000Y444500000D03*
%TD*%
D17*
%TO.P,JP1,1*%
%TO.N,vcc*%
X454660000Y388620000D03*
%TO.P,JP1,2*%
%TO.N,Net-(A1-Pad27)*%
X455960000Y388620000D03*
%TD*%
%TO.P,JP2,2*%
%TO.N,Net-(A1-Pad23)*%
X455930000Y396240000D03*
%TO.P,JP2,1*%
%TO.N,vcc*%
X454630000Y396240000D03*
%TD*%
D12*
%TO.P,A1,1*%
%TO.N,N/C*%
X481330000Y402590000D03*
D11*
%TO.P,A1,17*%
X466090000Y435610000D03*
%TO.P,A1,2*%
X481330000Y405130000D03*
%TO.P,A1,18*%
X466090000Y433070000D03*
%TO.P,A1,3*%
X481330000Y407670000D03*
%TO.P,A1,19*%
%TO.N,/up_a*%
X466090000Y430530000D03*
%TO.P,A1,4*%
%TO.N,GND*%
X481330000Y410210000D03*
%TO.P,A1,20*%
%TO.N,/left_a*%
X466090000Y427990000D03*
%TO.P,A1,5*%
%TO.N,N/C*%
X481330000Y412750000D03*
%TO.P,A1,21*%
%TO.N,/down_a*%
X466090000Y425450000D03*
%TO.P,A1,6*%
%TO.N,N/C*%
X481330000Y415290000D03*
%TO.P,A1,22*%
%TO.N,/right_a*%
X466090000Y422910000D03*
%TO.P,A1,7*%
%TO.N,N/C*%
X481330000Y417830000D03*
%TO.P,A1,23*%
%TO.N,Net-(A1-Pad23)*%
X466090000Y420370000D03*
%TO.P,A1,8*%
%TO.N,GND*%
X481330000Y420370000D03*
%TO.P,A1,24*%
%TO.N,N/C*%
X466090000Y417830000D03*
%TO.P,A1,9*%
X481330000Y422910000D03*
%TO.P,A1,25*%
X466090000Y415290000D03*
%TO.P,A1,10*%
X481330000Y425450000D03*
%TO.P,A1,26*%
X466090000Y412750000D03*
%TO.P,A1,11*%
X481330000Y427990000D03*
%TO.P,A1,27*%
%TO.N,Net-(A1-Pad27)*%
X466090000Y410210000D03*
%TO.P,A1,12*%
%TO.N,N/C*%
X481330000Y430530000D03*
%TO.P,A1,28*%
X466090000Y407670000D03*
%TO.P,A1,13*%
X481330000Y433070000D03*
%TO.P,A1,29*%
X466090000Y405130000D03*
%TO.P,A1,14*%
X481330000Y435610000D03*
%TO.P,A1,30*%
X466090000Y402590000D03*
%TO.P,A1,15*%
X481330000Y438150000D03*
%TO.P,A1,16*%
X466090000Y438150000D03*
%TD*%
D18*
%TO.N,/down_a*%
X454660000Y422910000D03*
%TO.N,/left_a*%
X431800000Y427990000D03*
X452120000Y427990000D03*
%TO.N,/up_a*%
X449580000Y430530000D03*
%TD*%
D19*
%TO.N,Net-(J1-Pad3)*%
X444500000Y422910000D02*
X445770000Y422910000D01*
X408940000Y441960000D02*
X416560000Y434340000D01*
X433070000Y434340000D02*
X444500000Y422910000D01*
X416560000Y434340000D02*
X433070000Y434340000D01*
%TO.N,Net-(J1-Pad2)*%
X439420000Y424180000D02*
X439420000Y421640000D01*
X431800000Y431800000D02*
X439420000Y424180000D01*
X439420000Y421640000D02*
X435610000Y417830000D01*
X406400000Y441960000D02*
X416560000Y431800000D01*
X416560000Y431800000D02*
X431800000Y431800000D01*
X433070000Y417830000D02*
X430530000Y415290000D01*
X435610000Y417830000D02*
X433070000Y417830000D01*
%TO.N,Net-(J2-Pad3)*%
X406400000Y425450000D02*
X407670000Y424180000D01*
X398780000Y425450000D02*
X406400000Y425450000D01*
X407670000Y424180000D02*
X407670000Y422910000D01*
X407670000Y422910000D02*
X410210000Y420370000D01*
X420370000Y420370000D02*
X422910000Y417830000D01*
X410210000Y420370000D02*
X420370000Y420370000D01*
%TO.N,Net-(J2-Pad2)*%
X398780000Y422910000D02*
X401320000Y422910000D01*
X401320000Y422910000D02*
X402590000Y421640000D01*
X402590000Y421640000D02*
X402590000Y417830000D01*
X402590000Y417830000D02*
X405130000Y415290000D01*
X405130000Y415290000D02*
X415290000Y415290000D01*
X415290000Y415290000D02*
X417830000Y417830000D01*
X415290000Y415290000D02*
X422910000Y415290000D01*
%TO.N,Net-(J3-Pad3)*%
X447040000Y403860000D02*
X445770000Y402590000D01*
X449580000Y417122880D02*
X449580000Y403860000D01*
X434340000Y438150000D02*
X450850000Y421640000D01*
X434340000Y441960000D02*
X434340000Y438150000D01*
X450850000Y421640000D02*
X450850000Y418392880D01*
X450850000Y418392880D02*
X449580000Y417122880D01*
X449580000Y403860000D02*
X447040000Y403860000D01*
X440690000Y407670000D02*
X430530000Y407670000D01*
X445770000Y402590000D02*
X440690000Y407670000D01*
%TO.N,Net-(J3-Pad2)*%
X430530000Y410210000D02*
X435610000Y410210000D01*
%TO.N,Net-(J4-Pad2)*%
X403860000Y408940000D02*
X405130000Y410210000D01*
X398780000Y401320000D02*
X403860000Y406400000D01*
X403860000Y406400000D02*
X403860000Y408940000D01*
X416560000Y410210000D02*
X416560000Y407670000D01*
X416560000Y410210000D02*
X422910000Y410210000D01*
X405130000Y410210000D02*
X416560000Y410210000D01*
%TO.N,/right_a*%
X452120000Y415290000D02*
X459740000Y422910000D01*
X452120000Y412750000D02*
X452120000Y415290000D01*
X422910000Y397510000D02*
X424180000Y396240000D01*
X422910000Y405130000D02*
X422910000Y397510000D01*
X451350010Y401820010D02*
X451350010Y411980010D01*
X451350010Y411980010D02*
X452120000Y412750000D01*
X424180000Y396240000D02*
X445770000Y396240000D01*
X445770000Y396240000D02*
X451350010Y401820010D01*
X466090000Y422910000D02*
X459740000Y422910000D01*
X419100000Y405130000D02*
X416560000Y402590000D01*
X422910000Y405130000D02*
X419100000Y405130000D01*
X457080000Y444500000D02*
X457080000Y425570000D01*
X457080000Y425570000D02*
X459740000Y422910000D01*
%TO.N,/down_a*%
X433070000Y405130000D02*
X435610000Y402590000D01*
X430530000Y405130000D02*
X433070000Y405130000D01*
X454580000Y444500000D02*
X454660000Y444500000D01*
X454660000Y444500000D02*
X454660000Y422910000D01*
%TO.N,/left_a*%
X422910000Y420370000D02*
X422910000Y426720000D01*
X422910000Y426720000D02*
X424180000Y427990000D01*
X424180000Y427990000D02*
X431800000Y427990000D01*
X420370000Y424180000D02*
X422910000Y426720000D01*
X417830000Y424180000D02*
X420370000Y424180000D01*
X452080000Y444500000D02*
X452080000Y428030000D01*
%TO.N,/up_a*%
X431800000Y420370000D02*
X434340000Y422910000D01*
X430530000Y420370000D02*
X431800000Y420370000D01*
X435610000Y422910000D02*
X434340000Y422910000D01*
X449580000Y444500000D02*
X449580000Y430530000D01*
D20*
%TO.N,vcc*%
X394970000Y406400000D02*
X398780000Y406400000D01*
X392430000Y403860000D02*
X394970000Y406400000D01*
X394970000Y427990000D02*
X392430000Y425450000D01*
X398780000Y427990000D02*
X394970000Y427990000D01*
X398780000Y445770000D02*
X407670000Y445770000D01*
X407670000Y445770000D02*
X411480000Y441960000D01*
X392430000Y425450000D02*
X392430000Y439420000D01*
X392430000Y439420000D02*
X398780000Y445770000D01*
X433070000Y445770000D02*
X436880000Y441960000D01*
X407670000Y445770000D02*
X433070000Y445770000D01*
X393700000Y412750000D02*
X392430000Y411480000D01*
X422910000Y412750000D02*
X393700000Y412750000D01*
X392430000Y403860000D02*
X392430000Y411480000D01*
X392430000Y411480000D02*
X392430000Y425450000D01*
X394970000Y393700000D02*
X449580000Y393700000D01*
X392430000Y403860000D02*
X392430000Y396240000D01*
X392430000Y396240000D02*
X394970000Y393700000D01*
X449580000Y393700000D02*
X449580000Y391160000D01*
X452120000Y388620000D02*
X454660000Y388620000D01*
X449580000Y391160000D02*
X452120000Y388620000D01*
X449580000Y393700000D02*
X449580000Y394970000D01*
X450850000Y396240000D02*
X454630000Y396240000D01*
X449580000Y394970000D02*
X450850000Y396240000D01*
%TO.N,Net-(A1-Pad23)*%
X455930000Y410210000D02*
X466090000Y420370000D01*
X455930000Y396240000D02*
X455930000Y410210000D01*
%TO.N,Net-(A1-Pad27)*%
X462280000Y406400000D02*
X466090000Y410210000D01*
X455960000Y388620000D02*
X462280000Y394940000D01*
X462280000Y394940000D02*
X462280000Y406400000D01*
%TD*%
M02*
