M48
; DRILL file {KiCad 5.1.6-c6e7f7d~86~ubuntu18.04.1} date Wed Jul  8 22:27:47 2020
; FORMAT={-:-/ absolute / inch / decimal}
; #@! TF.CreationDate,2020-07-08T22:27:47-04:00
; #@! TF.GenerationSoftware,Kicad,Pcbnew,5.1.6-c6e7f7d~86~ubuntu18.04.1
; #@! TF.FileFunction,Plated,1,2,PTH
FMAT,2
INCH
T1C0.0157
T2C0.0315
T3C0.0374
T4C0.0394
%
G90
G05
T1
X17.0Y16.85
X17.7Y16.95
X17.8Y16.85
X17.9Y16.65
T2
X16.05Y16.45
X16.45Y16.45
X16.0Y16.05
X16.4Y16.05
X17.15Y16.45
X17.55Y16.45
X16.65Y16.55
X16.65Y16.45
X16.65Y16.35
X16.65Y16.25
X16.65Y16.15
X16.65Y16.05
X16.65Y15.95
X16.95Y16.55
X16.95Y16.45
X16.95Y16.35
X16.95Y16.25
X16.95Y16.15
X16.95Y16.05
X16.95Y15.95
X17.15Y16.15
X17.55Y16.15
X17.15Y16.65
X17.55Y16.65
X16.0Y15.85
X16.4Y15.85
X16.05Y16.7
X16.45Y16.7
X17.15Y15.85
X17.55Y15.85
T3
X17.7Y17.5
X17.7984Y17.5
X17.8969Y17.5
X17.9953Y17.5
T4
X15.7Y16.85
X15.7Y16.75
X15.7Y16.65
X15.7Y16.55
X15.7Y16.0
X15.7Y15.9
X15.7Y15.8
X15.7Y15.7
X16.9Y17.4
X17.0Y17.4
X17.1Y17.4
X17.2Y17.4
X18.35Y17.25
X18.35Y17.15
X18.35Y17.05
X18.35Y16.95
X18.35Y16.85
X18.35Y16.75
X18.35Y16.65
X18.35Y16.55
X18.35Y16.45
X18.35Y16.35
X18.35Y16.25
X18.35Y16.15
X18.35Y16.05
X18.35Y15.95
X18.35Y15.85
X18.95Y17.25
X18.95Y17.15
X18.95Y17.05
X18.95Y16.95
X18.95Y16.85
X18.95Y16.75
X18.95Y16.65
X18.95Y16.55
X18.95Y16.45
X18.95Y16.35
X18.95Y16.25
X18.95Y16.15
X18.95Y16.05
X18.95Y15.95
X18.95Y15.85
X15.9Y17.4
X16.0Y17.4
X16.1Y17.4
X16.2Y17.4
T0
M30
